{"title":"Midnight.Cowboy.1969.720p.BDRip.x264.DTS","uid":7069065,"size":7052705209,"categoryP":"video","categoryS":"hd___movies","magnet":"?xt=urn:btih:8e8b82ff612289fdb33107ce57070ed642fa15cd&amp;dn=Midnight.Cowboy.1969.720p.BDRip.x264.DTS&amp;tr=udp%3A%2F%2Ftracker.openbittorrent.com%3A80&amp;tr=udp%3A%2F%2Fopen.demonii.com%3A1337&amp;tr=udp%3A%2F%2Ftracker.coppersurfer.tk%3A6969&amp;tr=udp%3A%2F%2Fexodus.desync.com%3A6969","seeders":2,"leechers":1,"uploader":"mfccorrea","files":7,"time":1330602976,"description":"Based on a James Leo Herlihy novel, British director John Schlesinger's first American film dramatized the small hopes, dashed dreams, and unlikely friendship of two late '60s lost souls. Dreaming of an easy life as a fantasy cowboy stud, cheerful Texas rube Joe Buck (Jon Voight) heads to New York City to be a gigolo, but he quickly discovers that hustling isn't what he thought it would be after he winds up paying his first trick (Sylvia Miles). He gets swindled by gimpy tubercular grifter Rico &quot;Ratso&quot; Rizzo (Dustin Hoffman) but, when Joe falls in the direst of straits, Ratso takes Joe into his condemned apartment so that they can help each other survive. Things start to look up when Joe finally lands his first legit female customer (Brenda Vaccaro) at a Warhol-esque party; Ratso's health, however, fails. Joe turns a final trick to get the money for one selfless goal: taking Ratso out of New York to his dream life in Miami. One of the first major studio films given the newly minted X rating for its then-frank portrayal of New York decadence, Midnight Cowboy was critically praised for Schlesinger's insight into American lives, with the intercut mosaic of Joe's memories and Ratso's dreams lending their characters and actions greater psychological complexity. While they may have been drawn by the seamy content (tame by current standards), the young late '60s audience responded to Joe's and Ratso's confusion amidst turbulent times and to the connection they make with each other despite their alienation from the surrounding culture. Midnight Cowboy became one of the major financial and artistic hits of 1969, winning Oscars for Best Picture (the first for an X-rated film), Best Director, and former blacklistee Waldo Salt's screenplay.\n\n   General\n      Complete name : Midnight.Cowboy.1969.720p.BDRip.x264.DTS.mkv\n      Format : Matroska\n      File size : 6.57 GiB\n      Duration : 1h 53mn\n      Overall bit rate : 8 295 Kbps\n      Movie name : Midnight.Cowboy.1969\n      Encoded date : UTC 2012-02-14 21:41:03\n      Writing application : mkvmerge v5.2.1 ('A Far Off Place') built on Jan  2 2012 23:21:10\n      Writing library : libebml v1.2.3 + libmatroska v1.3.0\n   Video #1\n      ID : 1\n      Format : AVC\n      Format/Info : Advanced Video Codec\n      Format profile : &lt;a class=&quot;__cf_email__&quot; href=&quot;/cdn-cgi/l/email-protection&quot; data-cfemail=&quot;8fc7e6e8e7cfc3bba1be&quot;&gt;[email&amp;#160;protected]&lt;/a&gt;&lt;script cf-hash='f9e31' type=&quot;text/javascript&quot;&gt;\n/* &lt;![CDATA[ */!function(){try{var t=&quot;currentScript&quot;in document?document.currentScript:function(){for(var t=document.getElementsByTagName(&quot;script&quot;),e=t.length;e--;)if(t[e].getAttribute(&quot;cf-hash&quot;))return t[e]}();if(t&amp;&amp;t.previousSibling){var e,r,n,i,c=t.previousSibling,a=c.getAttribute(&quot;data-cfemail&quot;);if(a){for(e=&quot;&quot;,r=parseInt(a.substr(0,2),16),n=2;a.length-n;n+=2)i=parseInt(a.substr(n,2),16)^r,e+=String.fromCharCode(i);e=document.createTextNode(e),c.parentNode.replaceChild(e,c)}}}catch(u){}}();/* ]]&gt; */&lt;/script&gt;\n      Format settings, CABAC : Yes\n      Format settings, ReFrames : 9 frames\n      Muxing mode : Container profile=&lt;a class=&quot;__cf_email__&quot; href=&quot;/cdn-cgi/l/email-protection&quot; data-cfemail=&quot;a8fdc6c3c6c7dfc6e89c8699&quot;&gt;[email&amp;#160;protected]&lt;/a&gt;&lt;script cf-hash='f9e31' type=&quot;text/javascript&quot;&gt;\n/* &lt;![CDATA[ */!function(){try{var t=&quot;currentScript&quot;in document?document.currentScript:function(){for(var t=document.getElementsByTagName(&quot;script&quot;),e=t.length;e--;)if(t[e].getAttribute(&quot;cf-hash&quot;))return t[e]}();if(t&amp;&amp;t.previousSibling){var e,r,n,i,c=t.previousSibling,a=c.getAttribute(&quot;data-cfemail&quot;);if(a){for(e=&quot;&quot;,r=parseInt(a.substr(0,2),16),n=2;a.length-n;n+=2)i=parseInt(a.substr(n,2),16)^r,e+=String.fromCharCode(i);e=document.createTextNode(e),c.parentNode.replaceChild(e,c)}}}catch(u){}}();/* ]]&gt; */&lt;/script&gt;\n      Codec ID : V_MPEG4/ISO/AVC\n      Duration : 1h 53mn\n      Bit rate : 6 620 Kbps\n      Nominal bit rate : 6 785 Kbps\n      Width : 1 280 pixels\n      Height : 688 pixels\n      Display aspect ratio : 1.860\n      Frame rate : 23.976 fps\n      Resolution : 24 bits\n      Colorimetry : 4:2:0\n      Scan type : Progressive\n      Bits/(Pixel*Frame) : 0.314\n      Stream size : 5.24 GiB (80%)\n      Title : x264\n   Audio #2\n      ID : 2\n      Format : DTS\n      Format/Info : Digital Theater Systems\n      Codec ID : A_DTS\n      Duration : 1h 53mn\n      Bit rate mode : Constant\n      Bit rate : 1 510 Kbps\n      Channel(s) : 6 channels\n      Channel positions : Front: L C R, Surround: L R, LFE\n      Sampling rate : 48.0 KHz\n      Resolution : 24 bits\n      Stream size : 1.20 GiB (18%)\n      Title : AC3\n &lt;a href=&quot;\nhttp://www.imdb.com/title/tt0064665/&quot; rel=&quot;nofollow&quot; target=&quot;_NEW&quot;&gt;\nhttp://www.imdb.com/title/tt0064665/&lt;/a&gt;\n\nLanguage: English\nSubtitles: English (HI), German, French, Italian, Spanish, Portuguese (srt)","torrent":{"xt":"urn:btih:8e8b82ff612289fdb33107ce57070ed642fa15cd","amp;dn":"Midnight.Cowboy.1969.720p.BDRip.x264.DTS","amp;tr":["udp%3A%2F%2Ftracker.openbittorrent.com%3A80","udp%3A%2F%2Fopen.demonii.com%3A1337","udp%3A%2F%2Ftracker.coppersurfer.tk%3A6969","udp%3A%2F%2Fexodus.desync.com%3A6969"],"infoHash":"8e8b82ff612289fdb33107ce57070ed642fa15cd","infoHashBuffer":{"type":"Buffer","data":[142,139,130,255,97,34,137,253,179,49,7,206,87,7,14,214,66,250,21,205]},"announce":[],"urlList":[]}}